<svg width="120" height="32" viewBox="0 0 120 32" fill="none" xmlns="http://www.w3.org/2000/svg">
  <path d="M12 4C7.58172 4 4 7.58172 4 12C4 16.4183 7.58172 20 12 20C16.4183 20 20 16.4183 20 12C20 7.58172 16.4183 4 12 4ZM2 12C2 6.47715 6.47715 2 12 2C17.5228 2 22 6.47715 22 12C22 17.5228 17.5228 22 12 22C6.47715 22 2 17.5228 2 12Z" fill="#4285F4"/>
  <path d="M12 8V16M8 12H16" stroke="#4285F4" stroke-width="2" stroke-linecap="round"/>
  <text x="28" y="17" font-family="Arial" font-size="16" font-weight="bold" fill="#333333">스펙랭킹</text>
</svg> 